HIERARCHY
ROOT Hips
{
	OFFSET 0.000000 0.000000 0.000000
	CHANNELS 6 Xposition Yposition Zposition Zrotation Yrotation Xrotation 
	JOINT LHipJoint
	{
		OFFSET 0.000000 0.000000 0.000000
		CHANNELS 3 Zrotation Yrotation Xrotation
		JOINT LeftUpLeg
		{
			OFFSET 1.363060 -1.794630 0.839290
			CHANNELS 3 Zrotation Yrotation Xrotation
			JOINT LeftLeg
			{
				OFFSET 2.448110 -6.726130 0.000000
				CHANNELS 3 Zrotation Yrotation Xrotation
				JOINT LeftFoot
				{
					OFFSET 2.562200 -7.039590 0.000000
					CHANNELS 3 Zrotation Yrotation Xrotation
					JOINT LeftToeBase
					{
						OFFSET 0.157640 -0.433110 2.322550
						CHANNELS 3 Zrotation Yrotation Xrotation
						End Site
						{
							OFFSET 0.000000 0.000000 0.000000
						}
					}
				}
			}
		}
	}
	JOINT RHipJoint
	{
		OFFSET 0.000000 0.000000 0.000000
		CHANNELS 3 Zrotation Yrotation Xrotation
		JOINT RightUpLeg
		{
			OFFSET -1.305520 -1.794630 0.839290
			CHANNELS 3 Zrotation Yrotation Xrotation
			JOINT RightLeg
			{
				OFFSET -2.542530 -6.985550 0.000000
				CHANNELS 3 Zrotation Yrotation Xrotation
				JOINT RightFoot
				{
					OFFSET -2.568260 -7.056230 0.000000
					CHANNELS 3 Zrotation Yrotation Xrotation
					JOINT RightToeBase
					{
						OFFSET -0.164730 -0.452590 2.363150
						CHANNELS 3 Zrotation Yrotation Xrotation
						End Site
						{
							OFFSET 0.000000 0.000000 0.000000
						}
					}
				}
			}
		}
	}
	JOINT LowerBack
	{
		OFFSET 0.000000 0.000000 0.000000
		CHANNELS 3 Zrotation Yrotation Xrotation
		JOINT Spine
		{
			OFFSET 0.028270 2.035590 -0.193380
			CHANNELS 3 Zrotation Yrotation Xrotation
			JOINT Spine1
			{
				OFFSET 0.056720 2.048850 -0.042750
				CHANNELS 3 Zrotation Yrotation Xrotation
				JOINT Neck
				{
					OFFSET 0.000000 0.000000 0.000000
					CHANNELS 3 Zrotation Yrotation Xrotation
					JOINT Neck1
					{
						OFFSET -0.054170 1.746240 0.172020
						CHANNELS 3 Zrotation Yrotation Xrotation
						JOINT Head
						{
							OFFSET 0.104070 1.761360 -0.123970
							CHANNELS 3 Zrotation Yrotation Xrotation
							End Site
							{
								OFFSET 0.000000 0.000000 0.000000
							}
						}
					}
				}
				JOINT LeftShoulder
				{
					OFFSET 0.000000 0.000000 0.000000
					CHANNELS 3 Zrotation Yrotation Xrotation
					JOINT LeftArm
					{
						OFFSET 3.362410 1.200890 -0.311210
						CHANNELS 3 Zrotation Yrotation Xrotation
						JOINT LeftForeArm
						{
							OFFSET 4.983000 -0.000000 -0.000000
							CHANNELS 3 Zrotation Yrotation Xrotation
							JOINT LeftHand
							{
								OFFSET 3.483560 -0.000000 -0.000000
								CHANNELS 3 Zrotation Yrotation Xrotation
								JOINT LeftFingerBase
								{
									OFFSET 0.000000 0.000000 0.000000
									CHANNELS 3 Zrotation Yrotation Xrotation
									JOINT LeftHandIndex1
									{
										OFFSET 0.715260 -0.000000 -0.000000
										CHANNELS 3 Zrotation Yrotation Xrotation
										End Site
										{
											OFFSET 0.000000 0.000000 0.000000
										}
									}
								}
								JOINT LThumb
								{
									OFFSET 0.000000 0.000000 0.000000
									CHANNELS 3 Zrotation Yrotation Xrotation
									End Site
									{
										OFFSET 0.000000 0.000000 0.000000
									}
								}
							}
						}
					}
				}
				JOINT RightShoulder
				{
					OFFSET 0.000000 0.000000 0.000000
					CHANNELS 3 Zrotation Yrotation Xrotation
					JOINT RightArm
					{
						OFFSET -3.136600 1.374050 -0.404650
						CHANNELS 3 Zrotation Yrotation Xrotation
						JOINT RightForeArm
						{
							OFFSET -5.241900 -0.000000 -0.000000
							CHANNELS 3 Zrotation Yrotation Xrotation
							JOINT RightHand
							{
								OFFSET -3.444170 -0.000000 -0.000000
								CHANNELS 3 Zrotation Yrotation Xrotation
								JOINT RightFingerBase
								{
									OFFSET 0.000000 0.000000 0.000000
									CHANNELS 3 Zrotation Yrotation Xrotation
									JOINT RightHandIndex1
									{
										OFFSET -0.622530 -0.000000 -0.000000
										CHANNELS 3 Zrotation Yrotation Xrotation
										End Site
										{
											OFFSET 0.000000 0.000000 0.000000
										}
									}
								}
								JOINT RThumb
								{
									OFFSET 0.000000 0.000000 0.000000
									CHANNELS 3 Zrotation Yrotation Xrotation
									End Site
									{
										OFFSET 0.000000 0.000000 0.000000
									}
								}
							}
						}
					}
				}
			}
		}
	}
}
MOTION
Frames: 12
Frame Time: 0.008333
-10.082715 17.531000 -23.741250 179.665251 -0.410443 -173.506927 -1.227202 19.032410 -2.028730 -17.863590 3.468794 -8.034000 -0.728909 -0.957343 19.246877 31.373596 -15.683632 -9.012513 -3.713328 -0.303016 -9.131247 -0.079822 -21.915707 3.255221 19.747160 5.569102 -10.980447 4.142995 -2.123690 21.208598 -32.992645 7.400939 -15.534005 0.992008 -26.481785 -4.128055 2.116321 -2.180624 4.711676 -11.289636 -2.705037 11.937443 7.555669 14.489709 -25.725800 -0.049413 1.173298 -17.273834 5.867189 0.168273 3.314855 -1.728415 -1.400047 -12.188385 21.404143 38.168584 -5.516867 -47.406402 -27.635334 24.369439 3.411007 -7.964675 13.795433 0.187944 5.103660 3.461662 -0.693714 9.031330 0.000000 0.000000 0.000000 0.000000 0.000000 0.000000 0.000000 -11.004349 -29.207258 0.791271 20.612480 1.407813 13.391342 -7.945544 28.313944 -2.496531 -3.775945 -14.283214 -1.599345 -3.982356 -12.704289 -0.000000 0.000000 0.000000 0.000000 0.000000 0.000000 0.000000 
-10.083720 17.530400 -23.742450 179.663742 -0.411860 -173.505695 -1.228283 19.037287 -2.033053 -17.869301 3.475345 -8.031246 -0.726189 -0.953703 19.254199 31.397115 -15.682762 -9.019394 -3.708588 -0.306675 -9.134386 -0.080964 -21.911599 3.255633 19.741165 5.567558 -10.979562 4.144802 -2.126677 21.206186 -32.953543 7.399651 -15.546571 1.015475 -26.475122 -4.136737 2.119781 -2.182592 4.717223 -11.293241 -2.707070 11.952353 7.555890 14.488765 -25.731807 -0.052702 1.180595 -17.279170 5.863561 0.176408 3.294194 -1.728197 -1.393333 -12.198183 21.399434 38.162184 -5.509697 -47.433350 -27.616975 24.382387 3.416826 -7.967870 13.793059 0.204081 5.123089 3.467152 -0.679024 9.032757 0.000000 0.000000 0.000000 0.000000 0.000000 0.000000 0.000000 -10.995384 -29.211416 0.783671 20.606866 1.426535 13.401776 -7.937884 28.341083 -2.496777 -3.774865 -14.274476 -1.600878 -3.980359 -12.702739 -0.000000 0.000000 0.000000 0.000000 0.000000 0.000000 0.000000 
-10.084635 17.530100 -23.743650 179.660522 -0.414256 -173.502494 -1.229405 19.039646 -2.035161 -17.877236 3.471475 -8.032386 -0.724597 -0.953447 19.269370 31.405035 -15.689295 -9.029641 -3.706985 -0.307029 -9.133173 -0.079903 -21.906077 3.253292 19.731377 5.565222 -10.981434 4.145021 -2.130904 21.209650 -32.985554 7.399243 -15.549858 0.991868 -26.478291 -4.126096 2.123136 -2.185460 4.727370 -11.297289 -2.710480 11.957345 7.552009 14.486140 -25.737482 -0.054893 1.178974 -17.283157 5.857585 0.175342 3.280313 -1.729356 -1.388866 -12.205078 21.390019 38.164794 -5.501287 -47.451235 -27.617942 24.417228 3.418824 -7.958089 13.815241 0.202555 5.102105 3.477413 -0.682262 9.031603 0.000000 0.000000 0.000000 0.000000 0.000000 0.000000 0.000000 -10.987616 -29.216706 0.775289 20.608805 1.448640 13.415795 -7.930287 28.353545 -2.497855 -3.777660 -14.256335 -1.601159 -3.982237 -12.700307 -0.000000 0.000000 0.000000 0.000000 0.000000 0.000000 0.000000 
-10.085460 17.529650 -23.745000 179.656285 -0.414769 -173.500859 -1.231891 19.042036 -2.042883 -17.885199 3.479277 -8.026877 -0.719666 -0.947238 19.279288 31.415573 -15.685778 -9.041039 -3.708699 -0.308406 -9.141043 -0.078699 -21.905866 3.253556 19.721943 5.563215 -10.986480 4.143200 -2.139397 21.216739 -32.973275 7.394486 -15.564127 1.002383 -26.478031 -4.139328 2.128757 -2.187202 4.737412 -11.305907 -2.711927 11.974834 7.535709 14.483957 -25.757860 -0.055541 1.174689 -17.280277 5.858947 0.169976 3.245862 -1.729561 -1.392945 -12.218309 21.379697 38.173366 -5.500723 -47.461782 -27.632428 24.447546 3.418679 -7.950814 13.839279 0.199116 5.087865 3.488166 -0.687796 9.031219 0.000000 0.000000 0.000000 0.000000 0.000000 0.000000 0.000000 -10.991758 -29.222947 0.749126 20.657994 1.470435 13.403659 -7.950951 28.326342 -2.495264 -3.780714 -14.234468 -1.595972 -3.987050 -12.695433 -0.000000 0.000000 0.000000 0.000000 0.000000 0.000000 0.000000 
-10.085910 17.529500 -23.746200 179.659861 -0.423431 -173.497949 -1.234350 19.043664 -2.040392 -17.880755 3.471577 -8.035893 -0.720482 -0.940334 19.292712 31.424529 -15.681392 -9.049804 -3.705425 -0.310668 -9.143467 -0.076917 -21.906680 3.243821 19.727170 5.552246 -10.978398 4.135545 -2.145852 21.222298 -33.023319 7.394228 -15.576390 0.975079 -26.484499 -4.135357 2.126549 -2.182223 4.751127 -11.286361 -2.707094 11.980913 7.516046 14.471655 -25.767966 -0.054090 1.175811 -17.287471 5.853825 0.172106 3.237513 -1.730450 -1.387508 -12.224856 21.346356 38.182049 -5.489867 -47.463599 -27.671620 24.538756 3.399352 -7.925726 13.916589 0.121313 5.088104 3.488294 -0.769373 9.039434 0.000000 0.000000 0.000000 0.000000 0.000000 0.000000 0.000000 -10.981408 -29.232797 0.744839 20.665409 1.465455 13.397002 -7.949267 28.374247 -2.506055 -3.792826 -14.245276 -1.601980 -4.000934 -12.698976 -0.000000 0.000000 0.000000 0.000000 0.000000 0.000000 0.000000 
-10.086840 17.529200 -23.747550 179.655480 -0.420481 -173.496938 -1.236298 19.041914 -2.046451 -17.887143 3.473082 -8.030199 -0.713131 -0.931917 19.304995 31.432295 -15.670106 -9.071415 -3.702421 -0.309838 -9.137827 -0.077929 -21.902090 3.246844 19.717050 5.555840 -10.982327 4.134821 -2.149386 21.227131 -33.005558 7.392349 -15.589136 0.988145 -26.483895 -4.148046 2.133300 -2.182285 4.755969 -11.291983 -2.706525 12.008296 7.504141 14.464487 -25.784936 -0.056975 1.170724 -17.295701 5.849165 0.167822 3.224553 -1.731676 -1.385555 -12.231087 21.331712 38.177549 -5.489717 -47.467097 -27.655762 24.551685 3.399306 -7.934438 13.874878 0.127056 5.061089 3.468042 -0.760351 9.037609 0.000000 0.000000 0.000000 0.000000 0.000000 0.000000 0.000000 -10.975761 -29.228106 0.734356 20.689606 1.469150 13.381493 -7.957751 28.402323 -2.514081 -3.802209 -14.256532 -1.606371 -4.012670 -12.700924 -0.000000 0.000000 0.000000 0.000000 0.000000 0.000000 0.000000 
-10.087725 17.528900 -23.748750 179.654405 -0.418246 -173.493719 -1.240033 19.041189 -2.052260 -17.891827 3.474487 -8.027918 -0.707569 -0.922635 19.313355 31.448136 -15.657852 -9.078658 -3.702937 -0.312908 -9.151221 -0.076223 -21.901139 3.243374 19.714058 5.556840 -10.986422 4.126851 -2.154910 21.240727 -33.040299 7.389708 -15.590915 0.971901 -26.492953 -4.153175 2.136481 -2.181007 4.770498 -11.284910 -2.705545 12.021618 7.494646 14.452400 -25.800756 -0.060219 1.162576 -17.296464 5.841838 0.160873 3.202773 -1.733704 -1.382496 -12.241813 21.330712 38.167658 -5.504393 -47.499578 -27.617048 24.519720 3.383199 -7.932816 13.785787 0.086896 5.111303 3.391815 -0.791165 9.046656 0.000000 0.000000 0.000000 0.000000 0.000000 0.000000 0.000000 -10.979982 -29.223840 0.732060 20.707414 1.485793 13.388876 -7.961158 28.410552 -2.515917 -3.815063 -14.258131 -1.605390 -4.025102 -12.701888 -0.000000 0.000000 0.000000 0.000000 0.000000 0.000000 0.000000 
-10.088325 17.528300 -23.750250 179.654278 -0.418556 -173.492268 -1.240472 19.044550 -2.054453 -17.894220 3.481442 -8.023723 -0.706840 -0.919911 19.315593 31.455778 -15.659597 -9.091848 -3.703647 -0.314941 -9.157866 -0.073494 -21.897079 3.240426 19.709994 5.557033 -10.986438 4.118195 -2.161681 21.250264 -33.067007 7.384773 -15.612080 0.954796 -26.494919 -4.150898 2.134338 -2.185630 4.779340 -11.288800 -2.709979 12.041843 7.501611 14.443207 -25.803106 -0.056298 1.128665 -17.299775 5.829575 0.128429 3.177934 -1.738962 -1.386901 -12.250353 21.326195 38.184955 -5.489702 -47.519448 -27.610222 24.567134 3.383919 -7.942988 13.815428 0.099922 5.131652 3.414937 -0.783358 9.048350 0.000000 0.000000 0.000000 0.000000 0.000000 0.000000 0.000000 -10.974362 -29.220303 0.716183 20.734393 1.520674 13.398557 -7.980874 28.398687 -2.499804 -3.815629 -14.250209 -1.592911 -4.023974 -12.698570 -0.000000 0.000000 0.000000 0.000000 0.000000 0.000000 0.000000 
-10.089030 17.528000 -23.751450 179.652263 -0.417319 -173.487411 -1.243621 19.043306 -2.057436 -17.899325 3.471807 -8.028378 -0.701632 -0.911193 19.335272 31.454497 -15.648166 -9.096483 -3.705414 -0.312804 -9.158809 -0.072130 -21.891313 3.234778 19.707044 5.557353 -10.987001 4.112553 -2.166889 21.257774 -33.096760 7.380205 -15.605836 0.937334 -26.502007 -4.147681 2.137822 -2.184580 4.794919 -11.282183 -2.709624 12.051177 7.488794 14.434031 -25.816481 -0.059306 1.126033 -17.305498 5.818645 0.127266 3.181180 -1.741035 -1.377749 -12.251876 21.299605 38.190878 -5.483950 -47.527873 -27.613807 24.609250 3.387226 -7.948149 13.832239 0.102991 5.128807 3.425914 -0.782798 9.049829 0.000000 0.000000 0.000000 0.000000 0.000000 0.000000 0.000000 -10.959051 -29.231299 0.705610 20.731739 1.544876 13.415869 -7.978503 28.420104 -2.495043 -3.820199 -14.240149 -1.588162 -4.027036 -12.697316 -0.000001 0.000000 0.000000 0.000000 0.000000 0.000000 0.000000 
-10.089210 17.527400 -23.752800 179.653060 -0.420609 -173.487125 -1.243031 19.046048 -2.059781 -17.898166 3.476697 -8.028203 -0.701540 -0.907808 19.345374 31.451655 -15.654663 -9.110935 -3.712041 -0.313998 -9.174204 -0.068926 -21.885749 3.235092 19.703359 5.559887 -10.984678 4.104813 -2.170963 21.261899 -33.131150 7.373022 -15.620687 0.917032 -26.507248 -4.146572 2.133362 -2.190646 4.799402 -11.291640 -2.715222 12.069401 7.501762 14.429906 -25.818663 -0.054303 1.096003 -17.307585 5.807950 0.097856 3.168282 -1.745830 -1.382350 -12.255628 21.296511 38.206418 -5.485102 -47.565619 -27.611952 24.621030 3.398270 -7.940670 13.836962 0.136219 5.099620 3.443838 -0.750897 9.044375 0.000000 0.000000 0.000000 0.000000 0.000000 0.000000 0.000000 -10.948885 -29.227064 0.706081 20.743275 1.579151 13.448569 -7.983916 28.407506 -2.479792 -3.824182 -14.216607 -1.575471 -4.027159 -12.693532 0.000000 0.000000 0.000000 0.000000 0.000000 0.000000 0.000000 
-10.090020 17.527100 -23.754300 179.649227 -0.419028 -173.486960 -1.243067 19.048605 -2.065688 -17.908784 3.478723 -8.023164 -0.694494 -0.902281 19.359409 31.465851 -15.649228 -9.130355 -3.709067 -0.314327 -9.172933 -0.066223 -21.877478 3.237910 19.690780 5.566099 -10.989339 4.098026 -2.176099 21.271076 -33.167574 7.367775 -15.630578 0.894994 -26.515057 -4.147444 2.133963 -2.196891 4.804758 -11.312144 -2.722053 12.089009 7.522198 14.437090 -25.816071 -0.053614 1.086337 -17.317412 5.797245 0.089125 3.163923 -1.748583 -1.377402 -12.257735 21.292449 38.211354 -5.474363 -47.607525 -27.589679 24.644339 3.404078 -7.954213 13.844901 0.152823 5.081737 3.454700 -0.735801 9.040982 0.000000 0.000000 0.000000 0.000000 0.000000 0.000000 0.000000 -10.924399 -29.224873 0.708354 20.716696 1.605224 13.480899 -7.967448 28.422545 -2.475403 -3.816353 -14.195227 -1.575297 -4.016160 -12.691495 0.000000 0.000000 0.000000 0.000000 0.000000 0.000000 0.000000 
-10.090620 17.526800 -23.755650 179.650414 -0.419849 -173.483718 -1.244636 19.052126 -2.068522 -17.908323 3.481760 -8.025775 -0.694670 -0.896047 19.371351 31.474221 -15.647990 -9.129751 -3.708049 -0.315082 -9.174758 -0.065427 -21.872973 3.235609 19.687280 5.565912 -10.989414 4.096672 -2.178289 21.280254 -33.163861 7.373166 -15.634440 0.899838 -26.516772 -4.154468 2.133764 -2.200344 4.815246 -11.307519 -2.725675 12.100492 7.519969 14.426607 -25.824643 -0.047894 1.054800 -17.315928 5.784056 0.058928 3.164239 -1.753914 -1.379497 -12.257286 21.274093 38.225754 -5.474556 -47.632042 -27.585161 24.660568 3.413551 -7.955275 13.879015 0.161158 5.045044 3.476541 -0.729759 9.036692 0.000000 0.000000 0.000000 0.000000 0.000000 0.000000 0.000000 -10.915648 -29.220062 0.694087 20.738764 1.635625 13.489186 -7.975582 28.411832 -2.468818 -3.815822 -14.177261 -1.569998 -4.015030 -12.687508 0.000000 0.000000 0.000000 0.000000 0.000000 0.000000 0.000000 
